<?xml version="1.0"?>
<!DOCTYPE svg PUBLIC "-//W3C//DTD SVG 1.1//EN" "http://www.w3.org/Graphics/SVG/1.1/DTD/svg11.dtd">
<svg width="613.02mm" height="474.02mm" viewBox="0 0 613.02 474.02" xmlns="http://www.w3.org/2000/svg" version="1.1">
<g id="Sketch" transform="translate(327.010000,170.010000) scale(1,-1)">
<path id="Sketch_w0000"  d="M 230.0 27.0 L 236.0 27.0 L 236.0 39.0 L 230.0 39.0 L 230.0 51.0 L 16.0 51.0 L 16.0 39.0 L 10.0 39.0 L 10.0 27.0 L 16.0 27.0 L 16.0 15.0 L 230.0 15.0 L 230.0 27.0 " stroke="#000000" stroke-width="0.35 px" style="stroke-width:0.35;stroke-miterlimit:4;stroke-dasharray:none;fill:none;fill-rule: evenodd "/>
<title>BASE_JUPE_MALE</title>
</g>
<g id="Sketch001" transform="translate(327.010000,170.010000) scale(1,-1)">
<path id="Sketch001_w0000"  d="M -236.0 27.0 L -230.0 27.0 L -230.0 39.0 L -236.0 39.0 L -236.0 50.0 A 40.0 40.0 0 0 0 -196.0 90.0 L -50.0 90.0 A 40.0 40.0 0 0 0 -10.0000000001 50.0000868632 L -10.0000000001 39.0 L -16.0 39.0 L -16.0 27.0 L -10.0 27.0 L -10.0 15.0 L -236.0 15.0 L -236.0 27.0 " stroke="#000000" stroke-width="0.35 px" style="stroke-width:0.35;stroke-miterlimit:4;stroke-dasharray:none;fill:none;fill-rule: evenodd "/>
<title>BASE_JUPE_FEMELLE</title>
</g>
<g id="Sketch002" transform="translate(327.010000,170.010000) scale(1,-1)">
<path id="Sketch002_w0000"  d="M 0.0 0.0 L 0.0 -67.5 L 6.0 -67.5 L 6.0 -142.5 L 0.0 -142.5 L 0.0 -210.0 L 67.5 -210.0 L 67.5 -204.0 L 142.5 -204.0 L 142.5 -210.0 L 210.0 -210.0 L 210.0 -175.5 L 245.0 -175.5 L 245.0 -169.5 L 280.0 -169.5 L 280.0 -128.5 L 274.0 -128.5 L 274.0 -81.5 L 280.0 -81.5 L 280.0 -40.5 L 245.0 -40.5 L 245.0 -34.5 L 210.0 -34.5 L 210.0 0.0 L 142.5 0.0 L 142.5 -6.0 L 67.5 -6.0 L 67.5 0.0 L 0.0 0.0 " stroke="#000000" stroke-width="0.35 px" style="stroke-width:0.35;stroke-miterlimit:4;stroke-dasharray:none;fill:none;fill-rule: evenodd "/>
<path id="Sketch002_w0001"  d="M 204.0 -67.5 L 210.0 -67.5 L 210.0 -142.5 L 204.0 -142.5 L 204.0 -67.5 " stroke="#000000" stroke-width="0.35 px" style="stroke-width:0.35;stroke-miterlimit:4;stroke-dasharray:none;fill:none;fill-rule: evenodd "/>
<title>BASE_FOND</title>
</g>
<g id="Sketch003" transform="translate(327.010000,170.010000) scale(1,-1)">
<path id="Sketch003_w0000"  d="M 0.0 -224.0 L 67.5 -224.0 L 67.5 -218.0 L 142.5 -218.0 L 142.5 -224.0 L 210.0 -224.0 L 210.0 -245.0 L 204.0 -245.0 L 204.0 -261.0 L 210.0 -261.0 L 210.0 -282.0 L 172.5 -282.0 L 172.5 -288.0 L 127.5 -288.0 L 127.5 -282.0 L 82.5 -282.0 L 82.5 -288.0 L 37.5 -288.0 L 37.5 -282.0 L 0.0 -282.0 L 0.0 -261.0 L 6.0 -261.0 L 6.0 -245.0 L 0.0 -245.0 L 0.0 -224.0 " stroke="#000000" stroke-width="0.35 px" style="stroke-width:0.35;stroke-miterlimit:4;stroke-dasharray:none;fill:none;fill-rule: evenodd "/>
<circle cx="32.3608252152" cy="-250.5" r="14.5" stroke="#000000" stroke-width="0.35 px" style="stroke-width:0.35;stroke-miterlimit:4;stroke-dasharray:none;fill:none"/>
<circle cx="20.0" cy="-229.0" r="2.0" stroke="#000000" stroke-width="0.35 px" style="stroke-width:0.35;stroke-miterlimit:4;stroke-dasharray:none;fill:none"/>
<circle cx="44.7216504303" cy="-272.0" r="2.0" stroke="#000000" stroke-width="0.35 px" style="stroke-width:0.35;stroke-miterlimit:4;stroke-dasharray:none;fill:none"/>
<circle cx="104.721153552" cy="-271.755817426" r="2.0" stroke="#000000" stroke-width="0.35 px" style="stroke-width:0.35;stroke-miterlimit:4;stroke-dasharray:none;fill:none"/>
<circle cx="92.1503532968" cy="-250.377908713" r="14.5" stroke="#000000" stroke-width="0.35 px" style="stroke-width:0.35;stroke-miterlimit:4;stroke-dasharray:none;fill:none"/>
<circle cx="79.5795530415" cy="-229.0" r="2.0" stroke="#000000" stroke-width="0.35 px" style="stroke-width:0.35;stroke-miterlimit:4;stroke-dasharray:none;fill:none"/>
<title>BASE_PAROI_FEMELLE_SIDE</title>
</g>
<g id="Sketch004" transform="translate(327.010000,170.010000) scale(1,-1)">
<path id="Sketch004_w0000"  d="M -220.0 -234.0 L -152.5 -234.0 L -152.5 -228.0 L -77.5 -228.0 L -77.5 -234.0 L -10.0 -234.0 L -10.0 -255.0 L -16.0 -255.0 L -16.0 -271.0 L -10.0 -271.0 L -10.0 -292.0 L -47.5 -292.0 L -47.5 -298.0 L -92.5 -298.0 L -92.5 -292.0 L -137.5 -292.0 L -137.5 -298.0 L -182.5 -298.0 L -182.5 -292.0 L -220.0 -292.0 L -220.0 -271.0 L -214.0 -271.0 L -214.0 -255.0 L -220.0 -255.0 L -220.0 -234.0 " stroke="#000000" stroke-width="0.35 px" style="stroke-width:0.35;stroke-miterlimit:4;stroke-dasharray:none;fill:none;fill-rule: evenodd "/>
<title>BASE_PAROI_FEMELLE_SIDE001</title>
</g>
<g id="Sketch005" transform="translate(327.010000,170.010000) scale(1,-1)">
<path id="Sketch005_w0000"  d="M -10.0 -220.0 L -31.0 -220.0 L -31.0 -226.0 L -47.0 -226.0 L -47.0 -220.0 L -68.0 -220.0 L -68.0 -182.5 L -74.0 -182.5 L -74.0 -137.5 L -68.0 -137.5 L -68.0 -92.5 L -74.0 -92.5 L -74.0 -47.5 L -68.0 -47.5 L -68.0 -10.0 L -47.0 -10.0 L -47.0 -4.0 L -31.0 -4.0 L -31.0 -10.0 L -10.0 -10.0 L -10.0 -77.5 L -4.0 -77.5 L -4.0 -152.5 L -10.0 -152.5 L -10.0 -220.0 " stroke="#000000" stroke-width="0.35 px" style="stroke-width:0.35;stroke-miterlimit:4;stroke-dasharray:none;fill:none;fill-rule: evenodd "/>
<path id="Sketch005_w0001"  d="M -41.0 -30.0 L -16.0 -30.0 L -16.0 -120.0 L -41.0 -120.0 L -41.0 -30.0 " stroke="#000000" stroke-width="0.35 px" style="stroke-width:0.35;stroke-miterlimit:4;stroke-dasharray:none;fill:none;fill-rule: evenodd "/>
<title>BASE_PAROI_MALE_BACK</title>
</g>
<g id="Sketch006" transform="translate(327.010000,170.010000) scale(1,-1)">
<path id="Sketch006_w0000"  d="M -295.0 -5.0 L -257.5 -5.0 L -257.5 -11.0 L -212.5 -11.0 L -212.5 -5.0 L -167.5 -5.0 L -167.5 -11.0 L -122.5 -11.0 L -122.5 -5.0 L -85.0 -5.0 L -85.0 -42.5 L -91.0 -42.5 L -91.0 -87.5 L -85.0 -87.5 L -85.0 -132.5 L -91.0 -132.5 L -91.0 -177.5 L -85.0 -177.5 L -85.0 -215.0 L -122.5 -215.0 L -122.5 -209.0 L -167.5 -209.0 L -167.5 -215.0 L -212.5 -215.0 L -212.5 -209.0 L -257.5 -209.0 L -257.5 -215.0 L -295.0 -215.0 L -295.0 -177.5 L -289.0 -177.5 L -289.0 -132.5 L -295.0 -132.5 L -295.0 -87.5 L -289.0 -87.5 L -289.0 -42.5 L -295.0 -42.5 L -295.0 -5.0 " stroke="#000000" stroke-width="0.35 px" style="stroke-width:0.35;stroke-miterlimit:4;stroke-dasharray:none;fill:none;fill-rule: evenodd "/>
<circle cx="-190.0" cy="-110.0" r="6.0" stroke="#000000" stroke-width="0.35 px" style="stroke-width:0.35;stroke-miterlimit:4;stroke-dasharray:none;fill:none"/>
<circle cx="-174.548189544" cy="-95.050366104" r="2.0" stroke="#000000" stroke-width="0.35 px" style="stroke-width:0.35;stroke-miterlimit:4;stroke-dasharray:none;fill:none"/>
<circle cx="-205.451810456" cy="-95.050366104" r="2.0" stroke="#000000" stroke-width="0.35 px" style="stroke-width:0.35;stroke-miterlimit:4;stroke-dasharray:none;fill:none"/>
<circle cx="-205.451810456" cy="-124.949633896" r="2.0" stroke="#000000" stroke-width="0.35 px" style="stroke-width:0.35;stroke-miterlimit:4;stroke-dasharray:none;fill:none"/>
<circle cx="-174.548189544" cy="-124.949633896" r="2.0" stroke="#000000" stroke-width="0.35 px" style="stroke-width:0.35;stroke-miterlimit:4;stroke-dasharray:none;fill:none"/>
<path id="Sketch006_w0006"  d="M -275.0 -155.0 L -260.0 -155.0 L -260.0 -100.0 L -275.0 -100.0 L -275.0 -155.0 " stroke="#000000" stroke-width="0.35 px" style="stroke-width:0.35;stroke-miterlimit:4;stroke-dasharray:none;fill:none;fill-rule: evenodd "/>
<circle cx="-267.5" cy="-172.5" r="2.5" stroke="#000000" stroke-width="0.35 px" style="stroke-width:0.35;stroke-miterlimit:4;stroke-dasharray:none;fill:none"/>
<circle cx="-267.5" cy="-162.5" r="2.5" stroke="#000000" stroke-width="0.35 px" style="stroke-width:0.35;stroke-miterlimit:4;stroke-dasharray:none;fill:none"/>
<path id="Sketch006_w0009"  d="M -160.0 -180.0 L -105.0 -180.0 L -105.0 -195.0 L -160.0 -195.0 L -160.0 -180.0 " stroke="#000000" stroke-width="0.35 px" style="stroke-width:0.35;stroke-miterlimit:4;stroke-dasharray:none;fill:none;fill-rule: evenodd "/>
<circle cx="-167.5" cy="-187.5" r="2.5" stroke="#000000" stroke-width="0.35 px" style="stroke-width:0.35;stroke-miterlimit:4;stroke-dasharray:none;fill:none"/>
<circle cx="-177.5" cy="-187.5" r="2.5" stroke="#000000" stroke-width="0.35 px" style="stroke-width:0.35;stroke-miterlimit:4;stroke-dasharray:none;fill:none"/>
<path id="Sketch006_w0012"  d="M -160.0 -25.0 L -105.0 -25.0 L -105.0 -40.0 L -160.0 -40.0 L -160.0 -25.0 " stroke="#000000" stroke-width="0.35 px" style="stroke-width:0.35;stroke-miterlimit:4;stroke-dasharray:none;fill:none;fill-rule: evenodd "/>
<circle cx="-167.5" cy="-32.5" r="2.5" stroke="#000000" stroke-width="0.35 px" style="stroke-width:0.35;stroke-miterlimit:4;stroke-dasharray:none;fill:none"/>
<circle cx="-177.5" cy="-32.5" r="2.5" stroke="#000000" stroke-width="0.35 px" style="stroke-width:0.35;stroke-miterlimit:4;stroke-dasharray:none;fill:none"/>
<title>BASE_INTERMEDIAIRE</title>
</g>
<g id="Sketch010" transform="translate(327.010000,170.010000) scale(1,-1)">
<path id="Sketch010_w0000"  d="M 15.0 130.0 L 156.0 130.0 L 156.0 144.0 L 150.0 144.0 L 150.0 158.0 L 109.0 158.0 L 109.0 164.0 L 62.0 164.0 L 62.0 158.0 L 21.0 158.0 L 21.0 144.0 L 15.0 144.0 L 15.0 130.0 " stroke="#000000" stroke-width="0.35 px" style="stroke-width:0.35;stroke-miterlimit:4;stroke-dasharray:none;fill:none;fill-rule: evenodd "/>
<path id="Sketch010_w0001"  d="M 52.0 152.0 L 72.0 152.0 L 72.0 142.0 L 52.0 142.0 L 52.0 152.0 " stroke="#000000" stroke-width="0.35 px" style="stroke-width:0.35;stroke-miterlimit:4;stroke-dasharray:none;fill:none;fill-rule: evenodd "/>
<title>BASE_LCD_PAROI_MALE</title>
</g>
<g id="Sketch011" transform="translate(327.010000,170.010000) scale(1,-1)">
<path id="Sketch011_w0000"  d="M -245.0 3.0 L -245.0 143.0 L -315.0 143.0 L -315.0 137.0 L -321.0 137.0 L -321.0 9.0 L -315.0 9.0 L -315.0 3.0 L -245.0 3.0 " stroke="#000000" stroke-width="0.35 px" style="stroke-width:0.35;stroke-miterlimit:4;stroke-dasharray:none;fill:none;fill-rule: evenodd "/>
<circle cx="-282.0" cy="22.0" r="6.0" stroke="#000000" stroke-width="0.35 px" style="stroke-width:0.35;stroke-miterlimit:4;stroke-dasharray:none;fill:none"/>
<title>BASE_COUVERCLE_LCD</title>
</g>
<g id="Sketch009" transform="translate(327.010000,170.010000) scale(1,-1)">
<path id="Sketch009_w0000"  d="M -90.0 95.0 L -125.0 95.0 L -125.0 101.0 L -160.0 101.0 L -160.0 117.0 L -166.0 117.0 L -166.0 123.0 L -160.0 123.0 L -160.0 129.0 L -96.0 129.0 L -96.0 115.0 L -90.0 115.0 L -90.0 95.0 " stroke="#000000" stroke-width="0.35 px" style="stroke-width:0.35;stroke-miterlimit:4;stroke-dasharray:none;fill:none;fill-rule: evenodd "/>
<title>BASE_PAROI_LCD2</title>
</g>
<g id="Sketch007" transform="translate(327.010000,170.010000) scale(1,-1)">
<path id="Sketch007_w0000"  d="M 15.0 60.0 L 82.5 60.0 L 82.5 54.0 L 157.5 54.0 L 157.5 60.0 L 225.0 60.0 L 225.0 81.0 L 231.0 81.0 L 231.0 97.0 L 225.0 97.0 L 225.0 118.0 L 187.5 118.0 L 187.5 124.0 L 142.5 124.0 L 142.5 118.0 L 97.5 118.0 L 97.5 124.0 L 52.5 124.0 L 52.5 118.0 L 15.0 118.0 L 15.0 97.0 L 9.0 97.0 L 9.0 81.0 L 15.0 81.0 L 15.0 60.0 " stroke="#000000" stroke-width="0.35 px" style="stroke-width:0.35;stroke-miterlimit:4;stroke-dasharray:none;fill:none;fill-rule: evenodd "/>
<path id="Sketch007_w0001"  d="M 92.5 66.0 L 147.5 66.0 L 147.5 60.0 L 92.5 60.0 L 92.5 66.0 " stroke="#000000" stroke-width="0.35 px" style="stroke-width:0.35;stroke-miterlimit:4;stroke-dasharray:none;fill:none;fill-rule: evenodd "/>
<path id="Sketch007_w0002"  d="M 56.0 88.0 L 184.0 88.0 L 184.0 94.0 L 56.0 94.0 L 56.0 88.0 " stroke="#000000" stroke-width="0.35 px" style="stroke-width:0.35;stroke-miterlimit:4;stroke-dasharray:none;fill:none;fill-rule: evenodd "/>
<path id="Sketch007_w0003"  d="M 190.0 82.0 L 184.0 82.0 L 184.0 76.0 L 190.0 76.0 L 190.0 82.0 " stroke="#000000" stroke-width="0.35 px" style="stroke-width:0.35;stroke-miterlimit:4;stroke-dasharray:none;fill:none;fill-rule: evenodd "/>
<path id="Sketch007_w0004"  d="M 56.0 82.0 L 50.0 82.0 L 50.0 76.0 L 56.0 76.0 L 56.0 82.0 " stroke="#000000" stroke-width="0.35 px" style="stroke-width:0.35;stroke-miterlimit:4;stroke-dasharray:none;fill:none;fill-rule: evenodd "/>
<title>BASE_PAROI_MALE_LCD</title>
</g>
<g id="Sketch008" transform="translate(327.010000,170.010000) scale(1,-1)">
<path id="Sketch008_w0000"  d="M -43.0 101.0 L -78.0 101.0 L -78.0 117.0 L -84.0 117.0 L -84.0 123.0 L -78.0 123.0 L -78.0 129.0 L -14.0 129.0 L -14.0 115.0 L -8.0 115.0 L -8.0 95.0 L -43.0 95.0 L -43.0 101.0 " stroke="#000000" stroke-width="0.35 px" style="stroke-width:0.35;stroke-miterlimit:4;stroke-dasharray:none;fill:none;fill-rule: evenodd "/>
<title>BASE_PAROI_LCD1</title>
</g>
</svg>