  0
SECTION
  2
HEADER
  9
$ACADVER
  1
AC1009
  9
$INSBASE
 10
0.0
 20
0.0
 30
0.0
  9
$EXTMIN
 10
0.0
 20
0.0
 30
0.0
  9
$EXTMAX
 10
0.0
 20
0.0
 30
0.0
  0
ENDSEC
  0
SECTION
  2
TABLES
  0
TABLE
  2
VPORT
 70
0
  0
ENDTAB
  0
TABLE
  2
LTYPE
 70
1
  0
LTYPE
  2
CONTINUOUS
 70
0
  3
Solid line
 72
65
 73
0
 40
0.0
  0
ENDTAB
  0
TABLE
  2
LAYER
 70
1
  0
LAYER
  2
0
 70
64
 62
7
  6
continuous
  0
ENDTAB
  0
TABLE
  2
STYLE
 70
1
  0
STYLE
  2
STANDARD
 70
0
 40
0
 41
1.0
 50
0.0
 71
0
 42
1
 3
ARIAL.TTF
 4

  0
ENDTAB
  0
TABLE
  2
VIEW
 70
0
  0
ENDTAB
  0
ENDSEC
  0
SECTION
  2
BLOCKS
  0
BLOCK
  8
0
  2
SKETCH002
 70
0
 10
0.0
 20
0.0
 30
0.0
  3
SKETCH002
  0
POLYLINE
  8
0
 62
7
 70
1
 66
1
 10
0.0
 20
0.0
 30
0.0
  0
VERTEX
  8
0
 10
0.0
 20
0.0
 30
0.0
  0
VERTEX
  8
0
 10
0.0
 20
-67.5
 30
0.0
  0
VERTEX
  8
0
 10
6.0
 20
-67.5
 30
0.0
  0
VERTEX
  8
0
 10
6.0
 20
-142.5
 30
0.0
  0
VERTEX
  8
0
 10
0.0
 20
-142.5
 30
0.0
  0
VERTEX
  8
0
 10
0.0
 20
-210.0
 30
0.0
  0
VERTEX
  8
0
 10
67.5
 20
-210.0
 30
0.0
  0
VERTEX
  8
0
 10
67.5
 20
-204.0
 30
0.0
  0
VERTEX
  8
0
 10
142.5
 20
-204.0
 30
0.0
  0
VERTEX
  8
0
 10
142.5
 20
-210.0
 30
0.0
  0
VERTEX
  8
0
 10
210.0
 20
-210.0
 30
0.0
  0
VERTEX
  8
0
 10
210.0
 20
-175.5
 30
0.0
  0
VERTEX
  8
0
 10
245.0
 20
-175.5
 30
0.0
  0
VERTEX
  8
0
 10
245.0
 20
-169.5
 30
0.0
  0
VERTEX
  8
0
 10
280.0
 20
-169.5
 30
0.0
  0
VERTEX
  8
0
 10
280.0
 20
-128.5
 30
0.0
  0
VERTEX
  8
0
 10
274.0
 20
-128.5
 30
0.0
  0
VERTEX
  8
0
 10
274.0
 20
-81.5
 30
0.0
  0
VERTEX
  8
0
 10
280.0
 20
-81.5
 30
0.0
  0
VERTEX
  8
0
 10
280.0
 20
-40.5
 30
0.0
  0
VERTEX
  8
0
 10
245.0
 20
-40.5
 30
0.0
  0
VERTEX
  8
0
 10
245.0
 20
-34.5
 30
0.0
  0
VERTEX
  8
0
 10
210.0
 20
-34.5
 30
0.0
  0
VERTEX
  8
0
 10
210.0
 20
0.0
 30
0.0
  0
VERTEX
  8
0
 10
142.5
 20
0.0
 30
0.0
  0
VERTEX
  8
0
 10
142.5
 20
-6.0
 30
0.0
  0
VERTEX
  8
0
 10
67.5
 20
-6.0
 30
0.0
  0
VERTEX
  8
0
 10
67.5
 20
0.0
 30
0.0
  0
SEQEND
  8
0
  0
POLYLINE
  8
0
 62
7
 70
1
 66
1
 10
0.0
 20
0.0
 30
0.0
  0
VERTEX
  8
0
 10
204.0
 20
-67.5
 30
0.0
  0
VERTEX
  8
0
 10
210.0
 20
-67.5
 30
0.0
  0
VERTEX
  8
0
 10
210.0
 20
-142.5
 30
0.0
  0
VERTEX
  8
0
 10
204.0
 20
-142.5
 30
0.0
  0
SEQEND
  8
0
  0
ENDBLK
  0
BLOCK
  8
0
  2
SKETCH003
 70
0
 10
0.0
 20
0.0
 30
0.0
  3
SKETCH003
  0
POLYLINE
  8
0
 62
7
 70
1
 66
1
 10
0.0
 20
0.0
 30
0.0
  0
VERTEX
  8
0
 10
0.0
 20
-224.0
 30
0.0
  0
VERTEX
  8
0
 10
67.5
 20
-224.0
 30
0.0
  0
VERTEX
  8
0
 10
67.5
 20
-218.0
 30
0.0
  0
VERTEX
  8
0
 10
142.5
 20
-218.0
 30
0.0
  0
VERTEX
  8
0
 10
142.5
 20
-224.0
 30
0.0
  0
VERTEX
  8
0
 10
210.0
 20
-224.0
 30
0.0
  0
VERTEX
  8
0
 10
210.0
 20
-245.0
 30
0.0
  0
VERTEX
  8
0
 10
204.0
 20
-245.0
 30
0.0
  0
VERTEX
  8
0
 10
204.0
 20
-261.0
 30
0.0
  0
VERTEX
  8
0
 10
210.0
 20
-261.0
 30
0.0
  0
VERTEX
  8
0
 10
210.0
 20
-282.0
 30
0.0
  0
VERTEX
  8
0
 10
172.5
 20
-282.0
 30
0.0
  0
VERTEX
  8
0
 10
172.5
 20
-288.0
 30
0.0
  0
VERTEX
  8
0
 10
127.5
 20
-288.0
 30
0.0
  0
VERTEX
  8
0
 10
127.5
 20
-282.0
 30
0.0
  0
VERTEX
  8
0
 10
82.5
 20
-282.0
 30
0.0
  0
VERTEX
  8
0
 10
82.5
 20
-288.0
 30
0.0
  0
VERTEX
  8
0
 10
37.5
 20
-288.0
 30
0.0
  0
VERTEX
  8
0
 10
37.5
 20
-282.0
 30
0.0
  0
VERTEX
  8
0
 10
0.0
 20
-282.0
 30
0.0
  0
VERTEX
  8
0
 10
0.0
 20
-261.0
 30
0.0
  0
VERTEX
  8
0
 10
6.0
 20
-261.0
 30
0.0
  0
VERTEX
  8
0
 10
6.0
 20
-245.0
 30
0.0
  0
VERTEX
  8
0
 10
0.0
 20
-245.0
 30
0.0
  0
SEQEND
  8
0
  0
CIRCLE
  8
0
 62
7
 10
32.3608252152
 20
-250.5
 30
0.0
 40
14.5
  0
CIRCLE
  8
0
 62
7
 10
20.0
 20
-229.0
 30
0.0
 40
2.0
  0
CIRCLE
  8
0
 62
7
 10
44.7216504303
 20
-272.0
 30
0.0
 40
2.0
  0
CIRCLE
  8
0
 62
7
 10
104.721153552
 20
-271.755817426
 30
0.0
 40
2.0
  0
CIRCLE
  8
0
 62
7
 10
92.1503532968
 20
-250.377908713
 30
0.0
 40
14.5
  0
CIRCLE
  8
0
 62
7
 10
79.5795530415
 20
-229.0
 30
0.0
 40
2.0
  0
ENDBLK
  0
BLOCK
  8
0
  2
SKETCH005
 70
0
 10
0.0
 20
0.0
 30
0.0
  3
SKETCH005
  0
POLYLINE
  8
0
 62
7
 70
1
 66
1
 10
0.0
 20
0.0
 30
0.0
  0
VERTEX
  8
0
 10
-10.0
 20
-220.0
 30
0.0
  0
VERTEX
  8
0
 10
-31.0
 20
-220.0
 30
0.0
  0
VERTEX
  8
0
 10
-31.0
 20
-226.0
 30
0.0
  0
VERTEX
  8
0
 10
-47.0
 20
-226.0
 30
0.0
  0
VERTEX
  8
0
 10
-47.0
 20
-220.0
 30
0.0
  0
VERTEX
  8
0
 10
-68.0
 20
-220.0
 30
0.0
  0
VERTEX
  8
0
 10
-68.0
 20
-182.5
 30
0.0
  0
VERTEX
  8
0
 10
-74.0
 20
-182.5
 30
0.0
  0
VERTEX
  8
0
 10
-74.0
 20
-137.5
 30
0.0
  0
VERTEX
  8
0
 10
-68.0
 20
-137.5
 30
0.0
  0
VERTEX
  8
0
 10
-68.0
 20
-92.5
 30
0.0
  0
VERTEX
  8
0
 10
-74.0
 20
-92.5
 30
0.0
  0
VERTEX
  8
0
 10
-74.0
 20
-47.5
 30
0.0
  0
VERTEX
  8
0
 10
-68.0
 20
-47.5
 30
0.0
  0
VERTEX
  8
0
 10
-68.0
 20
-10.0
 30
0.0
  0
VERTEX
  8
0
 10
-47.0
 20
-10.0
 30
0.0
  0
VERTEX
  8
0
 10
-47.0
 20
-4.0
 30
0.0
  0
VERTEX
  8
0
 10
-31.0
 20
-4.0
 30
0.0
  0
VERTEX
  8
0
 10
-31.0
 20
-10.0
 30
0.0
  0
VERTEX
  8
0
 10
-10.0
 20
-10.0
 30
0.0
  0
VERTEX
  8
0
 10
-10.0
 20
-77.5
 30
0.0
  0
VERTEX
  8
0
 10
-4.0
 20
-77.5
 30
0.0
  0
VERTEX
  8
0
 10
-4.0
 20
-152.5
 30
0.0
  0
VERTEX
  8
0
 10
-10.0
 20
-152.5
 30
0.0
  0
SEQEND
  8
0
  0
POLYLINE
  8
0
 62
7
 70
1
 66
1
 10
0.0
 20
0.0
 30
0.0
  0
VERTEX
  8
0
 10
-41.0
 20
-30.0
 30
0.0
  0
VERTEX
  8
0
 10
-16.0
 20
-30.0
 30
0.0
  0
VERTEX
  8
0
 10
-16.0
 20
-120.0
 30
0.0
  0
VERTEX
  8
0
 10
-41.0
 20
-120.0
 30
0.0
  0
SEQEND
  8
0
  0
ENDBLK
  0
BLOCK
  8
0
  2
SKETCH006
 70
0
 10
0.0
 20
0.0
 30
0.0
  3
SKETCH006
  0
POLYLINE
  8
0
 62
7
 70
1
 66
1
 10
0.0
 20
0.0
 30
0.0
  0
VERTEX
  8
0
 10
-295.0
 20
-5.0
 30
0.0
  0
VERTEX
  8
0
 10
-257.5
 20
-5.0
 30
0.0
  0
VERTEX
  8
0
 10
-257.5
 20
-11.0
 30
0.0
  0
VERTEX
  8
0
 10
-212.5
 20
-11.0
 30
0.0
  0
VERTEX
  8
0
 10
-212.5
 20
-5.0
 30
0.0
  0
VERTEX
  8
0
 10
-167.5
 20
-5.0
 30
0.0
  0
VERTEX
  8
0
 10
-167.5
 20
-11.0
 30
0.0
  0
VERTEX
  8
0
 10
-122.5
 20
-11.0
 30
0.0
  0
VERTEX
  8
0
 10
-122.5
 20
-5.0
 30
0.0
  0
VERTEX
  8
0
 10
-85.0
 20
-5.0
 30
0.0
  0
VERTEX
  8
0
 10
-85.0
 20
-42.5
 30
0.0
  0
VERTEX
  8
0
 10
-91.0
 20
-42.5
 30
0.0
  0
VERTEX
  8
0
 10
-91.0
 20
-87.5
 30
0.0
  0
VERTEX
  8
0
 10
-85.0
 20
-87.5
 30
0.0
  0
VERTEX
  8
0
 10
-85.0
 20
-132.5
 30
0.0
  0
VERTEX
  8
0
 10
-91.0
 20
-132.5
 30
0.0
  0
VERTEX
  8
0
 10
-91.0
 20
-177.5
 30
0.0
  0
VERTEX
  8
0
 10
-85.0
 20
-177.5
 30
0.0
  0
VERTEX
  8
0
 10
-85.0
 20
-215.0
 30
0.0
  0
VERTEX
  8
0
 10
-122.5
 20
-215.0
 30
0.0
  0
VERTEX
  8
0
 10
-122.5
 20
-209.0
 30
0.0
  0
VERTEX
  8
0
 10
-167.5
 20
-209.0
 30
0.0
  0
VERTEX
  8
0
 10
-167.5
 20
-215.0
 30
0.0
  0
VERTEX
  8
0
 10
-212.5
 20
-215.0
 30
0.0
  0
VERTEX
  8
0
 10
-212.5
 20
-209.0
 30
0.0
  0
VERTEX
  8
0
 10
-257.5
 20
-209.0
 30
0.0
  0
VERTEX
  8
0
 10
-257.5
 20
-215.0
 30
0.0
  0
VERTEX
  8
0
 10
-295.0
 20
-215.0
 30
0.0
  0
VERTEX
  8
0
 10
-295.0
 20
-177.5
 30
0.0
  0
VERTEX
  8
0
 10
-289.0
 20
-177.5
 30
0.0
  0
VERTEX
  8
0
 10
-289.0
 20
-132.5
 30
0.0
  0
VERTEX
  8
0
 10
-295.0
 20
-132.5
 30
0.0
  0
VERTEX
  8
0
 10
-295.0
 20
-87.5
 30
0.0
  0
VERTEX
  8
0
 10
-289.0
 20
-87.5
 30
0.0
  0
VERTEX
  8
0
 10
-289.0
 20
-42.5
 30
0.0
  0
VERTEX
  8
0
 10
-295.0
 20
-42.5
 30
0.0
  0
SEQEND
  8
0
  0
CIRCLE
  8
0
 62
7
 10
-190.0
 20
-110.0
 30
0.0
 40
6.0
  0
CIRCLE
  8
0
 62
7
 10
-174.549754342
 20
-95.0487489118
 30
0.0
 40
2.0
  0
CIRCLE
  8
0
 62
7
 10
-205.450245658
 20
-95.0487489118
 30
0.0
 40
2.0
  0
CIRCLE
  8
0
 62
7
 10
-205.450245658
 20
-124.951251088
 30
0.0
 40
2.0
  0
CIRCLE
  8
0
 62
7
 10
-174.549754342
 20
-124.951251088
 30
0.0
 40
2.0
  0
POLYLINE
  8
0
 62
7
 70
1
 66
1
 10
0.0
 20
0.0
 30
0.0
  0
VERTEX
  8
0
 10
-265.0
 20
-155.0
 30
0.0
  0
VERTEX
  8
0
 10
-250.0
 20
-155.0
 30
0.0
  0
VERTEX
  8
0
 10
-250.0
 20
-100.0
 30
0.0
  0
VERTEX
  8
0
 10
-265.0
 20
-100.0
 30
0.0
  0
SEQEND
  8
0
  0
CIRCLE
  8
0
 62
7
 10
-257.5
 20
-172.5
 30
0.0
 40
2.5
  0
CIRCLE
  8
0
 62
7
 10
-257.5
 20
-162.5
 30
0.0
 40
2.5
  0
POLYLINE
  8
0
 62
7
 70
1
 66
1
 10
0.0
 20
0.0
 30
0.0
  0
VERTEX
  8
0
 10
-170.0
 20
-170.0
 30
0.0
  0
VERTEX
  8
0
 10
-115.0
 20
-170.0
 30
0.0
  0
VERTEX
  8
0
 10
-115.0
 20
-185.0
 30
0.0
  0
VERTEX
  8
0
 10
-170.0
 20
-185.0
 30
0.0
  0
SEQEND
  8
0
  0
CIRCLE
  8
0
 62
7
 10
-177.5
 20
-177.5
 30
0.0
 40
2.5
  0
CIRCLE
  8
0
 62
7
 10
-187.5
 20
-177.5
 30
0.0
 40
2.5
  0
POLYLINE
  8
0
 62
7
 70
1
 66
1
 10
0.0
 20
0.0
 30
0.0
  0
VERTEX
  8
0
 10
-170.0
 20
-35.0
 30
0.0
  0
VERTEX
  8
0
 10
-115.0
 20
-35.0
 30
0.0
  0
VERTEX
  8
0
 10
-115.0
 20
-50.0
 30
0.0
  0
VERTEX
  8
0
 10
-170.0
 20
-50.0
 30
0.0
  0
SEQEND
  8
0
  0
CIRCLE
  8
0
 62
7
 10
-177.5
 20
-42.5
 30
0.0
 40
2.5
  0
CIRCLE
  8
0
 62
7
 10
-187.5
 20
-42.5
 30
0.0
 40
2.5
  0
ENDBLK
  0
BLOCK
  8
0
  2
SKETCH007
 70
0
 10
0.0
 20
0.0
 30
0.0
  3
SKETCH007
  0
POLYLINE
  8
0
 62
7
 70
1
 66
1
 10
0.0
 20
0.0
 30
0.0
  0
VERTEX
  8
0
 10
15.0
 20
60.0
 30
0.0
  0
VERTEX
  8
0
 10
82.5
 20
60.0
 30
0.0
  0
VERTEX
  8
0
 10
82.5
 20
54.0
 30
0.0
  0
VERTEX
  8
0
 10
157.5
 20
54.0
 30
0.0
  0
VERTEX
  8
0
 10
157.5
 20
60.0
 30
0.0
  0
VERTEX
  8
0
 10
225.0
 20
60.0
 30
0.0
  0
VERTEX
  8
0
 10
225.0
 20
81.0
 30
0.0
  0
VERTEX
  8
0
 10
231.0
 20
81.0
 30
0.0
  0
VERTEX
  8
0
 10
231.0
 20
97.0
 30
0.0
  0
VERTEX
  8
0
 10
225.0
 20
97.0
 30
0.0
  0
VERTEX
  8
0
 10
225.0
 20
118.0
 30
0.0
  0
VERTEX
  8
0
 10
187.5
 20
118.0
 30
0.0
  0
VERTEX
  8
0
 10
187.5
 20
124.0
 30
0.0
  0
VERTEX
  8
0
 10
142.5
 20
124.0
 30
0.0
  0
VERTEX
  8
0
 10
142.5
 20
118.0
 30
0.0
  0
VERTEX
  8
0
 10
97.5
 20
118.0
 30
0.0
  0
VERTEX
  8
0
 10
97.5
 20
124.0
 30
0.0
  0
VERTEX
  8
0
 10
52.5
 20
124.0
 30
0.0
  0
VERTEX
  8
0
 10
52.5
 20
118.0
 30
0.0
  0
VERTEX
  8
0
 10
15.0
 20
118.0
 30
0.0
  0
VERTEX
  8
0
 10
15.0
 20
97.0
 30
0.0
  0
VERTEX
  8
0
 10
9.0
 20
97.0
 30
0.0
  0
VERTEX
  8
0
 10
9.0
 20
81.0
 30
0.0
  0
VERTEX
  8
0
 10
15.0
 20
81.0
 30
0.0
  0
SEQEND
  8
0
  0
POLYLINE
  8
0
 62
7
 70
1
 66
1
 10
0.0
 20
0.0
 30
0.0
  0
VERTEX
  8
0
 10
92.5
 20
66.0
 30
0.0
  0
VERTEX
  8
0
 10
147.5
 20
66.0
 30
0.0
  0
VERTEX
  8
0
 10
147.5
 20
60.0
 30
0.0
  0
VERTEX
  8
0
 10
92.5
 20
60.0
 30
0.0
  0
SEQEND
  8
0
  0
POLYLINE
  8
0
 62
7
 70
1
 66
1
 10
0.0
 20
0.0
 30
0.0
  0
VERTEX
  8
0
 10
56.0
 20
88.0
 30
0.0
  0
VERTEX
  8
0
 10
184.0
 20
88.0
 30
0.0
  0
VERTEX
  8
0
 10
184.0
 20
92.0
 30
0.0
  0
VERTEX
  8
0
 10
56.0
 20
92.0
 30
0.0
  0
SEQEND
  8
0
  0
POLYLINE
  8
0
 62
7
 70
1
 66
1
 10
0.0
 20
0.0
 30
0.0
  0
VERTEX
  8
0
 10
190.0
 20
82.0
 30
0.0
  0
VERTEX
  8
0
 10
184.0
 20
82.0
 30
0.0
  0
VERTEX
  8
0
 10
184.0
 20
76.0
 30
0.0
  0
VERTEX
  8
0
 10
190.0
 20
76.0
 30
0.0
  0
SEQEND
  8
0
  0
POLYLINE
  8
0
 62
7
 70
1
 66
1
 10
0.0
 20
0.0
 30
0.0
  0
VERTEX
  8
0
 10
56.0
 20
82.0
 30
0.0
  0
VERTEX
  8
0
 10
50.0
 20
82.0
 30
0.0
  0
VERTEX
  8
0
 10
50.0
 20
76.0
 30
0.0
  0
VERTEX
  8
0
 10
56.0
 20
76.0
 30
0.0
  0
SEQEND
  8
0
  0
ENDBLK
  0
BLOCK
  8
0
  2
SKETCH010
 70
0
 10
0.0
 20
0.0
 30
0.0
  3
SKETCH010
  0
POLYLINE
  8
0
 62
7
 70
1
 66
1
 10
0.0
 20
0.0
 30
0.0
  0
VERTEX
  8
0
 10
15.0
 20
130.0
 30
0.0
  0
VERTEX
  8
0
 10
156.0
 20
130.0
 30
0.0
  0
VERTEX
  8
0
 10
156.0
 20
144.0
 30
0.0
  0
VERTEX
  8
0
 10
150.0
 20
144.0
 30
0.0
  0
VERTEX
  8
0
 10
150.0
 20
158.0
 30
0.0
  0
VERTEX
  8
0
 10
109.0
 20
158.0
 30
0.0
  0
VERTEX
  8
0
 10
109.0
 20
164.0
 30
0.0
  0
VERTEX
  8
0
 10
62.0
 20
164.0
 30
0.0
  0
VERTEX
  8
0
 10
62.0
 20
158.0
 30
0.0
  0
VERTEX
  8
0
 10
21.0
 20
158.0
 30
0.0
  0
VERTEX
  8
0
 10
21.0
 20
144.0
 30
0.0
  0
VERTEX
  8
0
 10
15.0
 20
144.0
 30
0.0
  0
SEQEND
  8
0
  0
POLYLINE
  8
0
 62
7
 70
1
 66
1
 10
0.0
 20
0.0
 30
0.0
  0
VERTEX
  8
0
 10
52.0
 20
152.0
 30
0.0
  0
VERTEX
  8
0
 10
72.0
 20
152.0
 30
0.0
  0
VERTEX
  8
0
 10
72.0
 20
142.0
 30
0.0
  0
VERTEX
  8
0
 10
52.0
 20
142.0
 30
0.0
  0
SEQEND
  8
0
  0
ENDBLK
  0
ENDSEC
  0
SECTION
  2
ENTITIES
  0
POLYLINE
  8
0
 62
7
 70
1
 66
1
 10
0.0
 20
0.0
 30
0.0
  0
VERTEX
  8
0
 10
230.0
 20
22.0
 30
0.0
  0
VERTEX
  8
0
 10
236.0
 20
22.0
 30
0.0
  0
VERTEX
  8
0
 10
236.0
 20
34.0
 30
0.0
  0
VERTEX
  8
0
 10
230.0
 20
34.0
 30
0.0
  0
VERTEX
  8
0
 10
230.0
 20
46.0
 30
0.0
  0
VERTEX
  8
0
 10
16.0
 20
46.0
 30
0.0
  0
VERTEX
  8
0
 10
16.0
 20
34.0
 30
0.0
  0
VERTEX
  8
0
 10
10.0
 20
34.0
 30
0.0
  0
VERTEX
  8
0
 10
10.0
 20
22.0
 30
0.0
  0
VERTEX
  8
0
 10
16.0
 20
22.0
 30
0.0
  0
VERTEX
  8
0
 10
16.0
 20
10.0
 30
0.0
  0
VERTEX
  8
0
 10
230.0
 20
10.0
 30
0.0
  0
SEQEND
  8
0
  0
POLYLINE
  8
0
 62
7
 70
1
 66
1
 10
0.0
 20
0.0
 30
0.0
  0
VERTEX
  8
0
 10
-236.0
 20
152.0
 30
0.0
  0
VERTEX
  8
0
 10
-230.0
 20
152.0
 30
0.0
  0
VERTEX
  8
0
 10
-230.0
 20
164.0
 30
0.0
  0
VERTEX
  8
0
 10
-236.0
 20
164.0
 30
0.0
  0
VERTEX
  8
0
 10
-236.0
 20
175.0
 30
0.0
 42
-0.414213562373
  0
VERTEX
  8
0
 10
-196.0
 20
215.0
 30
0.0
  0
VERTEX
  8
0
 10
-50.0
 20
215.0
 30
0.0
 42
-0.41421402762
  0
VERTEX
  8
0
 10
-10.0000000001
 20
174.999936462
 30
0.0
  0
VERTEX
  8
0
 10
-10.0000000001
 20
164.0
 30
0.0
  0
VERTEX
  8
0
 10
-16.0
 20
164.0
 30
0.0
  0
VERTEX
  8
0
 10
-16.0
 20
152.0
 30
0.0
  0
VERTEX
  8
0
 10
-10.0
 20
152.0
 30
0.0
  0
VERTEX
  8
0
 10
-10.0
 20
140.0
 30
0.0
  0
VERTEX
  8
0
 10
-236.0
 20
140.0
 30
0.0
  0
SEQEND
  8
0
  0
POLYLINE
  8
0
 62
7
 70
1
 66
1
 10
0.0
 20
0.0
 30
0.0
  0
VERTEX
  8
0
 10
-236.0
 20
27.0
 30
0.0
  0
VERTEX
  8
0
 10
-230.0
 20
27.0
 30
0.0
  0
VERTEX
  8
0
 10
-230.0
 20
39.0
 30
0.0
  0
VERTEX
  8
0
 10
-236.0
 20
39.0
 30
0.0
  0
VERTEX
  8
0
 10
-236.0
 20
50.0
 30
0.0
 42
-0.414213562373
  0
VERTEX
  8
0
 10
-196.0
 20
90.0
 30
0.0
  0
VERTEX
  8
0
 10
-50.0
 20
90.0
 30
0.0
 42
-0.414212926332
  0
VERTEX
  8
0
 10
-10.0000000001
 20
50.0000868632
 30
0.0
  0
VERTEX
  8
0
 10
-10.0000000001
 20
39.0
 30
0.0
  0
VERTEX
  8
0
 10
-16.0
 20
39.0
 30
0.0
  0
VERTEX
  8
0
 10
-16.0
 20
27.0
 30
0.0
  0
VERTEX
  8
0
 10
-10.0
 20
27.0
 30
0.0
  0
VERTEX
  8
0
 10
-10.0
 20
15.0
 30
0.0
  0
VERTEX
  8
0
 10
-236.0
 20
15.0
 30
0.0
  0
SEQEND
  8
0
  0
INSERT
  2
SKETCH002
  8
0
 62
7
 10
0.0
 20
0.0
 30
0.0
  0
INSERT
  2
SKETCH003
  8
0
 62
7
 10
0.0
 20
0.0
 30
0.0
  0
INSERT
  2
SKETCH005
  8
0
 62
7
 10
0.0
 20
0.0
 30
0.0
  0
INSERT
  2
SKETCH006
  8
0
 62
7
 10
0.0
 20
0.0
 30
0.0
  0
INSERT
  2
SKETCH007
  8
0
 62
7
 10
0.0
 20
0.0
 30
0.0
  0
POLYLINE
  8
0
 62
7
 70
1
 66
1
 10
0.0
 20
0.0
 30
0.0
  0
VERTEX
  8
0
 10
-43.0
 20
101.0
 30
0.0
  0
VERTEX
  8
0
 10
-78.0
 20
101.0
 30
0.0
  0
VERTEX
  8
0
 10
-78.0
 20
117.0
 30
0.0
  0
VERTEX
  8
0
 10
-84.0
 20
117.0
 30
0.0
  0
VERTEX
  8
0
 10
-84.0
 20
123.0
 30
0.0
  0
VERTEX
  8
0
 10
-78.0
 20
123.0
 30
0.0
  0
VERTEX
  8
0
 10
-78.0
 20
129.0
 30
0.0
  0
VERTEX
  8
0
 10
-14.0
 20
129.0
 30
0.0
  0
VERTEX
  8
0
 10
-14.0
 20
115.0
 30
0.0
  0
VERTEX
  8
0
 10
-8.0
 20
115.0
 30
0.0
  0
VERTEX
  8
0
 10
-8.0
 20
95.0
 30
0.0
  0
VERTEX
  8
0
 10
-43.0
 20
95.0
 30
0.0
  0
SEQEND
  8
0
  0
POLYLINE
  8
0
 62
7
 70
1
 66
1
 10
0.0
 20
0.0
 30
0.0
  0
VERTEX
  8
0
 10
-90.0
 20
95.0
 30
0.0
  0
VERTEX
  8
0
 10
-125.0
 20
95.0
 30
0.0
  0
VERTEX
  8
0
 10
-125.0
 20
101.0
 30
0.0
  0
VERTEX
  8
0
 10
-160.0
 20
101.0
 30
0.0
  0
VERTEX
  8
0
 10
-160.0
 20
117.0
 30
0.0
  0
VERTEX
  8
0
 10
-166.0
 20
117.0
 30
0.0
  0
VERTEX
  8
0
 10
-166.0
 20
123.0
 30
0.0
  0
VERTEX
  8
0
 10
-160.0
 20
123.0
 30
0.0
  0
VERTEX
  8
0
 10
-160.0
 20
129.0
 30
0.0
  0
VERTEX
  8
0
 10
-96.0
 20
129.0
 30
0.0
  0
VERTEX
  8
0
 10
-96.0
 20
115.0
 30
0.0
  0
VERTEX
  8
0
 10
-90.0
 20
115.0
 30
0.0
  0
SEQEND
  8
0
  0
INSERT
  2
SKETCH010
  8
0
 62
7
 10
0.0
 20
0.0
 30
0.0
  0
POLYLINE
  8
0
 62
7
 70
1
 66
1
 10
0.0
 20
0.0
 30
0.0
  0
VERTEX
  8
0
 10
230.0
 20
182.0
 30
0.0
  0
VERTEX
  8
0
 10
236.0
 20
182.0
 30
0.0
  0
VERTEX
  8
0
 10
236.0
 20
194.0
 30
0.0
  0
VERTEX
  8
0
 10
230.0
 20
194.0
 30
0.0
  0
VERTEX
  8
0
 10
230.0
 20
206.0
 30
0.0
  0
VERTEX
  8
0
 10
16.0
 20
206.0
 30
0.0
  0
VERTEX
  8
0
 10
16.0
 20
194.0
 30
0.0
  0
VERTEX
  8
0
 10
10.0
 20
194.0
 30
0.0
  0
VERTEX
  8
0
 10
10.0
 20
182.0
 30
0.0
  0
VERTEX
  8
0
 10
16.0
 20
182.0
 30
0.0
  0
VERTEX
  8
0
 10
16.0
 20
170.0
 30
0.0
  0
VERTEX
  8
0
 10
230.0
 20
170.0
 30
0.0
  0
SEQEND
  8
0
  0
POLYLINE
  8
0
 62
7
 70
1
 66
1
 10
0.0
 20
0.0
 30
0.0
  0
VERTEX
  8
0
 10
-230.0
 20
-234.0
 30
0.0
  0
VERTEX
  8
0
 10
-162.5
 20
-234.0
 30
0.0
  0
VERTEX
  8
0
 10
-162.5
 20
-228.0
 30
0.0
  0
VERTEX
  8
0
 10
-87.5
 20
-228.0
 30
0.0
  0
VERTEX
  8
0
 10
-87.5
 20
-234.0
 30
0.0
  0
VERTEX
  8
0
 10
-20.0
 20
-234.0
 30
0.0
  0
VERTEX
  8
0
 10
-20.0
 20
-255.0
 30
0.0
  0
VERTEX
  8
0
 10
-26.0
 20
-255.0
 30
0.0
  0
VERTEX
  8
0
 10
-26.0
 20
-271.0
 30
0.0
  0
VERTEX
  8
0
 10
-20.0
 20
-271.0
 30
0.0
  0
VERTEX
  8
0
 10
-20.0
 20
-292.0
 30
0.0
  0
VERTEX
  8
0
 10
-57.5
 20
-292.0
 30
0.0
  0
VERTEX
  8
0
 10
-57.5
 20
-298.0
 30
0.0
  0
VERTEX
  8
0
 10
-102.5
 20
-298.0
 30
0.0
  0
VERTEX
  8
0
 10
-102.5
 20
-292.0
 30
0.0
  0
VERTEX
  8
0
 10
-147.5
 20
-292.0
 30
0.0
  0
VERTEX
  8
0
 10
-147.5
 20
-298.0
 30
0.0
  0
VERTEX
  8
0
 10
-192.5
 20
-298.0
 30
0.0
  0
VERTEX
  8
0
 10
-192.5
 20
-292.0
 30
0.0
  0
VERTEX
  8
0
 10
-230.0
 20
-292.0
 30
0.0
  0
VERTEX
  8
0
 10
-230.0
 20
-271.0
 30
0.0
  0
VERTEX
  8
0
 10
-224.0
 20
-271.0
 30
0.0
  0
VERTEX
  8
0
 10
-224.0
 20
-255.0
 30
0.0
  0
VERTEX
  8
0
 10
-230.0
 20
-255.0
 30
0.0
  0
SEQEND
  8
0
  0
ENDSEC
  0
EOF
