G75*
%MOIN*%
%OFA0B0*%
%FSLAX25Y25*%
%IPPOS*%
%LPD*%
%AMOC8*
5,1,8,0,0,1.08239X$1,22.5*
%
%ADD10C,0.00000*%
%ADD11C,0.16548*%
D10*
X0001800Y0001800D02*
X0001800Y0080540D01*
X0474241Y0080540D01*
X0474241Y0001800D01*
X0001800Y0001800D01*
X0033296Y0029359D02*
X0033298Y0029552D01*
X0033305Y0029745D01*
X0033317Y0029938D01*
X0033334Y0030131D01*
X0033355Y0030323D01*
X0033381Y0030514D01*
X0033412Y0030705D01*
X0033447Y0030895D01*
X0033487Y0031084D01*
X0033532Y0031272D01*
X0033581Y0031459D01*
X0033635Y0031645D01*
X0033693Y0031829D01*
X0033756Y0032012D01*
X0033824Y0032193D01*
X0033895Y0032372D01*
X0033972Y0032550D01*
X0034052Y0032726D01*
X0034137Y0032899D01*
X0034226Y0033071D01*
X0034319Y0033240D01*
X0034416Y0033407D01*
X0034518Y0033572D01*
X0034623Y0033734D01*
X0034732Y0033893D01*
X0034846Y0034050D01*
X0034963Y0034203D01*
X0035083Y0034354D01*
X0035208Y0034502D01*
X0035336Y0034647D01*
X0035467Y0034788D01*
X0035602Y0034927D01*
X0035741Y0035062D01*
X0035882Y0035193D01*
X0036027Y0035321D01*
X0036175Y0035446D01*
X0036326Y0035566D01*
X0036479Y0035683D01*
X0036636Y0035797D01*
X0036795Y0035906D01*
X0036957Y0036011D01*
X0037122Y0036113D01*
X0037289Y0036210D01*
X0037458Y0036303D01*
X0037630Y0036392D01*
X0037803Y0036477D01*
X0037979Y0036557D01*
X0038157Y0036634D01*
X0038336Y0036705D01*
X0038517Y0036773D01*
X0038700Y0036836D01*
X0038884Y0036894D01*
X0039070Y0036948D01*
X0039257Y0036997D01*
X0039445Y0037042D01*
X0039634Y0037082D01*
X0039824Y0037117D01*
X0040015Y0037148D01*
X0040206Y0037174D01*
X0040398Y0037195D01*
X0040591Y0037212D01*
X0040784Y0037224D01*
X0040977Y0037231D01*
X0041170Y0037233D01*
X0041363Y0037231D01*
X0041556Y0037224D01*
X0041749Y0037212D01*
X0041942Y0037195D01*
X0042134Y0037174D01*
X0042325Y0037148D01*
X0042516Y0037117D01*
X0042706Y0037082D01*
X0042895Y0037042D01*
X0043083Y0036997D01*
X0043270Y0036948D01*
X0043456Y0036894D01*
X0043640Y0036836D01*
X0043823Y0036773D01*
X0044004Y0036705D01*
X0044183Y0036634D01*
X0044361Y0036557D01*
X0044537Y0036477D01*
X0044710Y0036392D01*
X0044882Y0036303D01*
X0045051Y0036210D01*
X0045218Y0036113D01*
X0045383Y0036011D01*
X0045545Y0035906D01*
X0045704Y0035797D01*
X0045861Y0035683D01*
X0046014Y0035566D01*
X0046165Y0035446D01*
X0046313Y0035321D01*
X0046458Y0035193D01*
X0046599Y0035062D01*
X0046738Y0034927D01*
X0046873Y0034788D01*
X0047004Y0034647D01*
X0047132Y0034502D01*
X0047257Y0034354D01*
X0047377Y0034203D01*
X0047494Y0034050D01*
X0047608Y0033893D01*
X0047717Y0033734D01*
X0047822Y0033572D01*
X0047924Y0033407D01*
X0048021Y0033240D01*
X0048114Y0033071D01*
X0048203Y0032899D01*
X0048288Y0032726D01*
X0048368Y0032550D01*
X0048445Y0032372D01*
X0048516Y0032193D01*
X0048584Y0032012D01*
X0048647Y0031829D01*
X0048705Y0031645D01*
X0048759Y0031459D01*
X0048808Y0031272D01*
X0048853Y0031084D01*
X0048893Y0030895D01*
X0048928Y0030705D01*
X0048959Y0030514D01*
X0048985Y0030323D01*
X0049006Y0030131D01*
X0049023Y0029938D01*
X0049035Y0029745D01*
X0049042Y0029552D01*
X0049044Y0029359D01*
X0049042Y0029166D01*
X0049035Y0028973D01*
X0049023Y0028780D01*
X0049006Y0028587D01*
X0048985Y0028395D01*
X0048959Y0028204D01*
X0048928Y0028013D01*
X0048893Y0027823D01*
X0048853Y0027634D01*
X0048808Y0027446D01*
X0048759Y0027259D01*
X0048705Y0027073D01*
X0048647Y0026889D01*
X0048584Y0026706D01*
X0048516Y0026525D01*
X0048445Y0026346D01*
X0048368Y0026168D01*
X0048288Y0025992D01*
X0048203Y0025819D01*
X0048114Y0025647D01*
X0048021Y0025478D01*
X0047924Y0025311D01*
X0047822Y0025146D01*
X0047717Y0024984D01*
X0047608Y0024825D01*
X0047494Y0024668D01*
X0047377Y0024515D01*
X0047257Y0024364D01*
X0047132Y0024216D01*
X0047004Y0024071D01*
X0046873Y0023930D01*
X0046738Y0023791D01*
X0046599Y0023656D01*
X0046458Y0023525D01*
X0046313Y0023397D01*
X0046165Y0023272D01*
X0046014Y0023152D01*
X0045861Y0023035D01*
X0045704Y0022921D01*
X0045545Y0022812D01*
X0045383Y0022707D01*
X0045218Y0022605D01*
X0045051Y0022508D01*
X0044882Y0022415D01*
X0044710Y0022326D01*
X0044537Y0022241D01*
X0044361Y0022161D01*
X0044183Y0022084D01*
X0044004Y0022013D01*
X0043823Y0021945D01*
X0043640Y0021882D01*
X0043456Y0021824D01*
X0043270Y0021770D01*
X0043083Y0021721D01*
X0042895Y0021676D01*
X0042706Y0021636D01*
X0042516Y0021601D01*
X0042325Y0021570D01*
X0042134Y0021544D01*
X0041942Y0021523D01*
X0041749Y0021506D01*
X0041556Y0021494D01*
X0041363Y0021487D01*
X0041170Y0021485D01*
X0040977Y0021487D01*
X0040784Y0021494D01*
X0040591Y0021506D01*
X0040398Y0021523D01*
X0040206Y0021544D01*
X0040015Y0021570D01*
X0039824Y0021601D01*
X0039634Y0021636D01*
X0039445Y0021676D01*
X0039257Y0021721D01*
X0039070Y0021770D01*
X0038884Y0021824D01*
X0038700Y0021882D01*
X0038517Y0021945D01*
X0038336Y0022013D01*
X0038157Y0022084D01*
X0037979Y0022161D01*
X0037803Y0022241D01*
X0037630Y0022326D01*
X0037458Y0022415D01*
X0037289Y0022508D01*
X0037122Y0022605D01*
X0036957Y0022707D01*
X0036795Y0022812D01*
X0036636Y0022921D01*
X0036479Y0023035D01*
X0036326Y0023152D01*
X0036175Y0023272D01*
X0036027Y0023397D01*
X0035882Y0023525D01*
X0035741Y0023656D01*
X0035602Y0023791D01*
X0035467Y0023930D01*
X0035336Y0024071D01*
X0035208Y0024216D01*
X0035083Y0024364D01*
X0034963Y0024515D01*
X0034846Y0024668D01*
X0034732Y0024825D01*
X0034623Y0024984D01*
X0034518Y0025146D01*
X0034416Y0025311D01*
X0034319Y0025478D01*
X0034226Y0025647D01*
X0034137Y0025819D01*
X0034052Y0025992D01*
X0033972Y0026168D01*
X0033895Y0026346D01*
X0033824Y0026525D01*
X0033756Y0026706D01*
X0033693Y0026889D01*
X0033635Y0027073D01*
X0033581Y0027259D01*
X0033532Y0027446D01*
X0033487Y0027634D01*
X0033447Y0027823D01*
X0033412Y0028013D01*
X0033381Y0028204D01*
X0033355Y0028395D01*
X0033334Y0028587D01*
X0033317Y0028780D01*
X0033305Y0028973D01*
X0033298Y0029166D01*
X0033296Y0029359D01*
X0426997Y0029359D02*
X0426999Y0029552D01*
X0427006Y0029745D01*
X0427018Y0029938D01*
X0427035Y0030131D01*
X0427056Y0030323D01*
X0427082Y0030514D01*
X0427113Y0030705D01*
X0427148Y0030895D01*
X0427188Y0031084D01*
X0427233Y0031272D01*
X0427282Y0031459D01*
X0427336Y0031645D01*
X0427394Y0031829D01*
X0427457Y0032012D01*
X0427525Y0032193D01*
X0427596Y0032372D01*
X0427673Y0032550D01*
X0427753Y0032726D01*
X0427838Y0032899D01*
X0427927Y0033071D01*
X0428020Y0033240D01*
X0428117Y0033407D01*
X0428219Y0033572D01*
X0428324Y0033734D01*
X0428433Y0033893D01*
X0428547Y0034050D01*
X0428664Y0034203D01*
X0428784Y0034354D01*
X0428909Y0034502D01*
X0429037Y0034647D01*
X0429168Y0034788D01*
X0429303Y0034927D01*
X0429442Y0035062D01*
X0429583Y0035193D01*
X0429728Y0035321D01*
X0429876Y0035446D01*
X0430027Y0035566D01*
X0430180Y0035683D01*
X0430337Y0035797D01*
X0430496Y0035906D01*
X0430658Y0036011D01*
X0430823Y0036113D01*
X0430990Y0036210D01*
X0431159Y0036303D01*
X0431331Y0036392D01*
X0431504Y0036477D01*
X0431680Y0036557D01*
X0431858Y0036634D01*
X0432037Y0036705D01*
X0432218Y0036773D01*
X0432401Y0036836D01*
X0432585Y0036894D01*
X0432771Y0036948D01*
X0432958Y0036997D01*
X0433146Y0037042D01*
X0433335Y0037082D01*
X0433525Y0037117D01*
X0433716Y0037148D01*
X0433907Y0037174D01*
X0434099Y0037195D01*
X0434292Y0037212D01*
X0434485Y0037224D01*
X0434678Y0037231D01*
X0434871Y0037233D01*
X0435064Y0037231D01*
X0435257Y0037224D01*
X0435450Y0037212D01*
X0435643Y0037195D01*
X0435835Y0037174D01*
X0436026Y0037148D01*
X0436217Y0037117D01*
X0436407Y0037082D01*
X0436596Y0037042D01*
X0436784Y0036997D01*
X0436971Y0036948D01*
X0437157Y0036894D01*
X0437341Y0036836D01*
X0437524Y0036773D01*
X0437705Y0036705D01*
X0437884Y0036634D01*
X0438062Y0036557D01*
X0438238Y0036477D01*
X0438411Y0036392D01*
X0438583Y0036303D01*
X0438752Y0036210D01*
X0438919Y0036113D01*
X0439084Y0036011D01*
X0439246Y0035906D01*
X0439405Y0035797D01*
X0439562Y0035683D01*
X0439715Y0035566D01*
X0439866Y0035446D01*
X0440014Y0035321D01*
X0440159Y0035193D01*
X0440300Y0035062D01*
X0440439Y0034927D01*
X0440574Y0034788D01*
X0440705Y0034647D01*
X0440833Y0034502D01*
X0440958Y0034354D01*
X0441078Y0034203D01*
X0441195Y0034050D01*
X0441309Y0033893D01*
X0441418Y0033734D01*
X0441523Y0033572D01*
X0441625Y0033407D01*
X0441722Y0033240D01*
X0441815Y0033071D01*
X0441904Y0032899D01*
X0441989Y0032726D01*
X0442069Y0032550D01*
X0442146Y0032372D01*
X0442217Y0032193D01*
X0442285Y0032012D01*
X0442348Y0031829D01*
X0442406Y0031645D01*
X0442460Y0031459D01*
X0442509Y0031272D01*
X0442554Y0031084D01*
X0442594Y0030895D01*
X0442629Y0030705D01*
X0442660Y0030514D01*
X0442686Y0030323D01*
X0442707Y0030131D01*
X0442724Y0029938D01*
X0442736Y0029745D01*
X0442743Y0029552D01*
X0442745Y0029359D01*
X0442743Y0029166D01*
X0442736Y0028973D01*
X0442724Y0028780D01*
X0442707Y0028587D01*
X0442686Y0028395D01*
X0442660Y0028204D01*
X0442629Y0028013D01*
X0442594Y0027823D01*
X0442554Y0027634D01*
X0442509Y0027446D01*
X0442460Y0027259D01*
X0442406Y0027073D01*
X0442348Y0026889D01*
X0442285Y0026706D01*
X0442217Y0026525D01*
X0442146Y0026346D01*
X0442069Y0026168D01*
X0441989Y0025992D01*
X0441904Y0025819D01*
X0441815Y0025647D01*
X0441722Y0025478D01*
X0441625Y0025311D01*
X0441523Y0025146D01*
X0441418Y0024984D01*
X0441309Y0024825D01*
X0441195Y0024668D01*
X0441078Y0024515D01*
X0440958Y0024364D01*
X0440833Y0024216D01*
X0440705Y0024071D01*
X0440574Y0023930D01*
X0440439Y0023791D01*
X0440300Y0023656D01*
X0440159Y0023525D01*
X0440014Y0023397D01*
X0439866Y0023272D01*
X0439715Y0023152D01*
X0439562Y0023035D01*
X0439405Y0022921D01*
X0439246Y0022812D01*
X0439084Y0022707D01*
X0438919Y0022605D01*
X0438752Y0022508D01*
X0438583Y0022415D01*
X0438411Y0022326D01*
X0438238Y0022241D01*
X0438062Y0022161D01*
X0437884Y0022084D01*
X0437705Y0022013D01*
X0437524Y0021945D01*
X0437341Y0021882D01*
X0437157Y0021824D01*
X0436971Y0021770D01*
X0436784Y0021721D01*
X0436596Y0021676D01*
X0436407Y0021636D01*
X0436217Y0021601D01*
X0436026Y0021570D01*
X0435835Y0021544D01*
X0435643Y0021523D01*
X0435450Y0021506D01*
X0435257Y0021494D01*
X0435064Y0021487D01*
X0434871Y0021485D01*
X0434678Y0021487D01*
X0434485Y0021494D01*
X0434292Y0021506D01*
X0434099Y0021523D01*
X0433907Y0021544D01*
X0433716Y0021570D01*
X0433525Y0021601D01*
X0433335Y0021636D01*
X0433146Y0021676D01*
X0432958Y0021721D01*
X0432771Y0021770D01*
X0432585Y0021824D01*
X0432401Y0021882D01*
X0432218Y0021945D01*
X0432037Y0022013D01*
X0431858Y0022084D01*
X0431680Y0022161D01*
X0431504Y0022241D01*
X0431331Y0022326D01*
X0431159Y0022415D01*
X0430990Y0022508D01*
X0430823Y0022605D01*
X0430658Y0022707D01*
X0430496Y0022812D01*
X0430337Y0022921D01*
X0430180Y0023035D01*
X0430027Y0023152D01*
X0429876Y0023272D01*
X0429728Y0023397D01*
X0429583Y0023525D01*
X0429442Y0023656D01*
X0429303Y0023791D01*
X0429168Y0023930D01*
X0429037Y0024071D01*
X0428909Y0024216D01*
X0428784Y0024364D01*
X0428664Y0024515D01*
X0428547Y0024668D01*
X0428433Y0024825D01*
X0428324Y0024984D01*
X0428219Y0025146D01*
X0428117Y0025311D01*
X0428020Y0025478D01*
X0427927Y0025647D01*
X0427838Y0025819D01*
X0427753Y0025992D01*
X0427673Y0026168D01*
X0427596Y0026346D01*
X0427525Y0026525D01*
X0427457Y0026706D01*
X0427394Y0026889D01*
X0427336Y0027073D01*
X0427282Y0027259D01*
X0427233Y0027446D01*
X0427188Y0027634D01*
X0427148Y0027823D01*
X0427113Y0028013D01*
X0427082Y0028204D01*
X0427056Y0028395D01*
X0427035Y0028587D01*
X0427018Y0028780D01*
X0427006Y0028973D01*
X0426999Y0029166D01*
X0426997Y0029359D01*
D11*
X0434871Y0029359D03*
X0041170Y0029359D03*
M02*
